<?xml version="1.0" encoding="UTF-8"?>
<svg width="512" height="512" viewBox="0 0 512 512" fill="none" xmlns="http://www.w3.org/2000/svg">
<rect width="512" height="512" rx="60" fill="#2563EB"/>
<path d="M256 128C185.308 128 128 185.308 128 256C128 326.692 185.308 384 256 384C326.692 384 384 326.692 384 256C384 185.308 326.692 128 256 128ZM256 362.667C197.417 362.667 149.333 314.583 149.333 256C149.333 197.417 197.417 149.333 256 149.333C314.583 149.333 362.667 197.417 362.667 256C362.667 314.583 314.583 362.667 256 362.667Z" fill="white"/>
<path d="M320 234.667C309.25 234.667 298.667 238.333 290.167 245.583L235.417 214.583C236.5 208.5 236.5 202.25 235.417 196.167L290.167 165.167C298.667 172.417 309.25 176.083 320 176.083C345.583 176.083 366.083 155.583 366.083 130C366.083 104.417 345.583 83.9167 320 83.9167C294.417 83.9167 273.917 104.417 273.917 130C273.917 133.083 274.25 136.083 274.833 139L220.083 170C212.417 164.667 203.5 161.75 194.167 161.667C168.583 161.667 148.083 182.167 148.083 207.75C148.083 233.333 168.583 253.833 194.167 253.833C203.5 253.75 212.417 250.833 220.083 245.5L274.833 276.5C274.417 279.417 274 282.417 274 285.5C274 311.083 294.5 331.583 320.083 331.583C345.667 331.583 366.167 311.083 366.167 285.5C366.167 259.917 345.667 239.417 320.083 239.417L320 234.667ZM320 106.167C333.333 106.167 344 116.833 344 130.167C344 143.5 333.333 154.167 320 154.167C306.667 154.167 296 143.5 296 130.167C296 116.833 306.667 106.167 320 106.167ZM194.167 231.917C180.833 231.917 170.167 221.25 170.167 207.917C170.167 194.583 180.833 183.917 194.167 183.917C207.5 183.917 218.167 194.583 218.167 207.917C218.167 221.25 207.5 231.917 194.167 231.917ZM320 309.583C306.667 309.583 296 298.917 296 285.583C296 272.25 306.667 261.583 320 261.583C333.333 261.583 344 272.25 344 285.583C344 298.917 333.333 309.583 320 309.583Z" fill="white"/>
<path d="M286.417 301.417C282.417 305.5 282.5 312 286.583 316.083C290.667 320.167 297.167 320.083 301.25 316L349.5 266.667C353.583 262.667 353.5 256.167 349.417 252.083C345.333 248 338.833 248.083 334.75 252.167L286.417 301.417Z" fill="white"/>
<path d="M369.5 171.5L331.667 142.917C327 139.333 320.5 140.167 316.917 144.833C313.333 149.5 314.167 156 318.833 159.583L356.667 188.167C361.333 191.75 367.833 190.917 371.417 186.25C375 181.583 374.167 175.083 369.5 171.5Z" fill="white"/>
<path d="M190.417 261C184.333 260.917 178.667 265.333 178.583 271.417L177.833 334.75C177.75 340.833 182.167 346.5 188.25 346.583C194.333 346.667 200 342.25 200.083 336.167L200.833 272.833C200.917 266.75 196.5 261.083 190.417 261Z" fill="white"/>
</svg>