<?xml version="1.0" encoding="UTF-8"?>
<svg width="394" height="80" viewBox="0 0 394 80" fill="none" xmlns="http://www.w3.org/2000/svg">
<path d="M262 0h68.5v12.7h-27.2v66.6h-13.6V12.7H262V0ZM149.6 0v12.7H94v20.4h44.3v12.6H94v21h55.5v12.6H80.5V0h69.1ZM169.4 0h13.5v98.5h-13.5V0ZM187.5 0h13.5v98.5h-13.5V0ZM0 0c.1 27.3.2 46.7.3 58.2.1 16.9 8 28.3 35.3 28.3 4 0 8.6-.4 13.5-1v-12.5a57.54 57.54 0 0 1-9.8.7c-19.8 0-25.5-7.1-25.5-25V0h-14Z" fill="#000000"/>
<path d="M72.6 79.3c-5.3 0-9.8-.3-13.5-1V91c3.6.5 7.5.8 11.2.8 29.3 0 37.4-13.7 37.4-39.7V0h-13.7v51.6c0 24.4-5.1 27.7-21.4 27.7Zm51-79.3h53.1c26.9 0 44 10 44 39.9 0 33.8-19.9 45.8-47.8 45.8h-49.3V0Zm52.3 73.2c17.8 0 30.7-7.7 30.7-31.6 0-21.6-9.8-29.1-29.7-29.1h-39.7v60.7h38.7Z" fill="#000000"/>
</svg>